<svg width="20" height="19" viewBox="0 0 20 19" fill="none" xmlns="http://www.w3.org/2000/svg">
<path d="M10.001 2.02898C12.35 -0.0800202 15.98 -0.01002 18.243 2.25698C20.505 4.52498 20.583 8.13698 18.479 10.493L9.999 18.985L1.521 10.493C-0.583002 8.13698 -0.504001 4.51898 1.757 2.25698C4.022 -0.00702 7.645 -0.0830202 10.001 2.02898ZM16.827 3.66998C15.327 2.16798 12.907 2.10698 11.337 3.51698L10.002 4.71498L8.666 3.51798C7.091 2.10598 4.676 2.16798 3.172 3.67198C1.682 5.16198 1.607 7.54698 2.98 9.12298L10 16.154L17.02 9.12398C18.394 7.54698 18.319 5.16498 16.827 3.66998Z" fill="#D9D9D9"/>
</svg>
