<svg width="14" height="12" viewBox="0 0 14 12" fill="none" xmlns="http://www.w3.org/2000/svg">
<path d="M1 12C0.823192 12 0.653622 11.9298 0.528598 11.8047C0.403574 11.6797 0.333336 11.5101 0.333336 11.3333V0.666667C0.333336 0.489856 0.403574 0.320286 0.528598 0.195262C0.653622 0.0702379 0.823192 0 1 0H5.94267L7.276 1.33333H12.3333C12.5101 1.33333 12.6797 1.40357 12.8047 1.5286C12.9298 1.65362 13 1.82319 13 2V4H11.6667V2.66667H6.724L5.39067 1.33333H1.66667V9.332L2.66667 5.33333H14L12.46 11.4953C12.4239 11.6395 12.3406 11.7675 12.2235 11.8589C12.1063 11.9503 11.962 12 11.8133 12H1ZM12.292 6.66667H3.708L2.708 10.6667H11.292L12.292 6.66667Z" fill="white"/>
</svg>
