<svg width="15" height="12" viewBox="0 0 15 12" fill="none" xmlns="http://www.w3.org/2000/svg">
<path d="M0.333374 9.49996H5.00004V10.8333H0.333374V9.49996ZM0.333374 4.83329H6.33337V6.16663H0.333374V4.83329ZM0.333374 0.166626H13.6667V1.49996H0.333374V0.166626ZM12.7827 6.18329L13.5534 5.92263L14.22 7.07729L13.6094 7.61396C13.6862 7.97839 13.6862 8.35486 13.6094 8.71929L14.22 9.25596L13.5534 10.4106L12.7827 10.15C12.5094 10.3966 12.184 10.5866 11.826 10.7033L11.6667 11.5H10.3334L10.1734 10.7026C9.81955 10.587 9.49388 10.3985 9.21737 10.1493L8.44671 10.4106L7.78004 9.25596L8.39071 8.71929C8.31384 8.35486 8.31384 7.97839 8.39071 7.61396L7.78004 7.07729L8.44671 5.92263L9.21737 6.18329C9.49071 5.93663 9.81604 5.74663 10.174 5.62996L10.3334 4.83329H11.6667L11.8267 5.63063C12.184 5.74663 12.5094 5.93729 12.7827 6.18396V6.18329ZM11 8.83329C11.1769 8.83329 11.3464 8.76305 11.4714 8.63803C11.5965 8.51301 11.6667 8.34344 11.6667 8.16663C11.6667 7.98981 11.5965 7.82025 11.4714 7.69522C11.3464 7.5702 11.1769 7.49996 11 7.49996C10.8232 7.49996 10.6537 7.5702 10.5286 7.69522C10.4036 7.82025 10.3334 7.98981 10.3334 8.16663C10.3334 8.34344 10.4036 8.51301 10.5286 8.63803C10.6537 8.76305 10.8232 8.83329 11 8.83329Z" fill="#D9D9D9"/>
</svg>
