<svg width="9" height="12" viewBox="0 0 9 12" fill="none" xmlns="http://www.w3.org/2000/svg">
<path d="M7.66665 6.44463L0.851313 10.988C0.801117 11.0214 0.7428 11.0405 0.682574 11.0434C0.622348 11.0463 0.562468 11.0328 0.509313 11.0043C0.456157 10.9759 0.411716 10.9335 0.380722 10.8818C0.349729 10.8301 0.333344 10.7709 0.333313 10.7106V1.28929C0.333344 1.229 0.349729 1.16984 0.380722 1.11812C0.411716 1.0664 0.456157 1.02406 0.509313 0.995599C0.562468 0.96714 0.622348 0.953631 0.682574 0.956512C0.7428 0.959393 0.801117 0.978556 0.851313 1.01196L7.66665 5.55529V1.33329C7.66665 1.15648 7.73688 0.986912 7.86191 0.861888C7.98693 0.736864 8.1565 0.666626 8.33331 0.666626C8.51012 0.666626 8.67969 0.736864 8.80472 0.861888C8.92974 0.986912 8.99998 1.15648 8.99998 1.33329V10.6666C8.99998 10.8434 8.92974 11.013 8.80472 11.138C8.67969 11.2631 8.51012 11.3333 8.33331 11.3333C8.1565 11.3333 7.98693 11.2631 7.86191 11.138C7.73688 11.013 7.66665 10.8434 7.66665 10.6666V6.44463Z" fill="#D9D9D9"/>
</svg>
