<svg width="11" height="12" viewBox="0 0 11 12" fill="none" xmlns="http://www.w3.org/2000/svg">
<path d="M8.60001 1C8.60001 0.734784 8.70536 0.48043 8.8929 0.292893C9.08044 0.105357 9.33479 0 9.60001 0C9.86522 0 10.1196 0.105357 10.3071 0.292893C10.4946 0.48043 10.6 0.734784 10.6 1V11C10.6 11.2652 10.4946 11.5196 10.3071 11.7071C10.1196 11.8946 9.86522 12 9.60001 12C9.33479 12 9.08044 11.8946 8.8929 11.7071C8.70536 11.5196 8.60001 11.2652 8.60001 11V1ZM0.600006 1C0.600006 0.734784 0.705363 0.48043 0.8929 0.292893C1.08044 0.105357 1.33479 0 1.60001 0C1.86522 0 2.11958 0.105357 2.30711 0.292893C2.49465 0.48043 2.60001 0.734784 2.60001 1V11C2.60001 11.2652 2.49465 11.5196 2.30711 11.7071C2.11958 11.8946 1.86522 12 1.60001 12C1.33479 12 1.08044 11.8946 0.8929 11.7071C0.705363 11.5196 0.600006 11.2652 0.600006 11V1Z" fill="black"/>
</svg>
