<?xml version="1.0" encoding="UTF-8" standalone="no"?>
<svg
   width="12"
   height="16"
   viewBox="0 0 12 16"
   fill="none"
   version="1.1"
   id="svg4"
   sodipodi:docname="play.svg"
   inkscape:version="1.2.1 (9c6d41e410, 2022-07-14)"
   xmlns:inkscape="http://www.inkscape.org/namespaces/inkscape"
   xmlns:sodipodi="http://sodipodi.sourceforge.net/DTD/sodipodi-0.dtd"
   xmlns="http://www.w3.org/2000/svg"
   xmlns:svg="http://www.w3.org/2000/svg">
  <defs
     id="defs8" />
  <sodipodi:namedview
     id="namedview6"
     pagecolor="#ffffff"
     bordercolor="#000000"
     borderopacity="0.25"
     inkscape:showpageshadow="2"
     inkscape:pageopacity="0.0"
     inkscape:pagecheckerboard="0"
     inkscape:deskcolor="#d1d1d1"
     showgrid="false"
     inkscape:zoom="49.25"
     inkscape:cx="5.9898477"
     inkscape:cy="8"
     inkscape:window-width="1920"
     inkscape:window-height="986"
     inkscape:window-x="-11"
     inkscape:window-y="-11"
     inkscape:window-maximized="1"
     inkscape:current-layer="svg4" />
  <path
     d="m 11.617697,8.338088 -8.6136391,5.742424 c -0.06119,0.04071 -0.1322807,0.06411 -0.2056979,0.06763 -0.073417,0.0035 -0.1464126,-0.013 -0.2112112,-0.0477 -0.064798,-0.03462 -0.118973,-0.0863 -0.1567547,-0.149288 -0.037782,-0.06306 -0.057755,-0.135231 -0.057793,-0.2087 V 2.2575762 c 3.81e-5,-0.0735 0.020012,-0.1456154 0.057793,-0.2086625 0.037783,-0.063047 0.091958,-0.1146658 0.1567547,-0.1493585 0.064799,-0.034692 0.137794,-0.051159 0.2112112,-0.047648 0.073416,0.00352 0.1445067,0.026873 0.2056979,0.067591 l 8.6136391,5.7424357 c 0.05567,0.037106 0.101259,0.08738 0.132873,0.1463564 0.03152,0.058977 0.04803,0.1248284 0.04803,0.1917205 0,0.066884 -0.01649,0.132744 -0.04803,0.1917206 -0.03162,0.058976 -0.07721,0.1092493 -0.132873,0.1463566 z"
     fill="#000000"
     id="path2"
     style="stroke-width:0.812684" />
</svg>
