<svg width="9" height="12" viewBox="0 0 9 12" fill="none" xmlns="http://www.w3.org/2000/svg">
<path d="M1.33333 5.55529L8.14867 1.01196C8.19886 0.978556 8.25718 0.959393 8.31741 0.956512C8.37763 0.953631 8.43751 0.96714 8.49067 0.995599C8.54382 1.02406 8.58826 1.0664 8.61926 1.11812C8.65025 1.16984 8.66664 1.229 8.66667 1.28929V10.7106C8.66664 10.7709 8.65025 10.8301 8.61926 10.8818C8.58826 10.9335 8.54382 10.9759 8.49067 11.0043C8.43751 11.0328 8.37763 11.0463 8.31741 11.0434C8.25718 11.0405 8.19886 11.0214 8.14867 10.988L1.33333 6.44463V10.6666C1.33333 10.8434 1.2631 11.013 1.13807 11.138C1.01305 11.2631 0.843478 11.3333 0.666667 11.3333C0.489856 11.3333 0.320287 11.2631 0.195262 11.138C0.070238 11.013 0 10.8434 0 10.6666V1.33329C0 1.15648 0.070238 0.986912 0.195262 0.861888C0.320287 0.736864 0.489856 0.666626 0.666667 0.666626C0.843478 0.666626 1.01305 0.736864 1.13807 0.861888C1.2631 0.986912 1.33333 1.15648 1.33333 1.33329V5.55529Z" fill="#D9D9D9"/>
</svg>
