<svg width="14" height="14" viewBox="0 0 14 14" fill="none" xmlns="http://www.w3.org/2000/svg">
<path d="M4.33331 12.3333V13.6213C4.33342 13.6847 4.31544 13.7468 4.28149 13.8004C4.24754 13.8539 4.19903 13.8967 4.14165 13.9236C4.08426 13.9506 4.02038 13.9606 3.95751 13.9525C3.89463 13.9444 3.83536 13.9186 3.78665 13.878L1.03998 11.5893C0.987298 11.5454 0.949453 11.4863 0.931607 11.4201C0.91376 11.3538 0.916781 11.2837 0.940258 11.2193C0.963735 11.1548 1.00652 11.0992 1.06279 11.0599C1.11905 11.0207 1.18605 10.9998 1.25465 11H11C11.3536 11 11.6927 10.8595 11.9428 10.6095C12.1928 10.3594 12.3333 10.0203 12.3333 9.66667V4.33334H13.6666V9.66667C13.6666 10.3739 13.3857 11.0522 12.8856 11.5523C12.3855 12.0524 11.7072 12.3333 11 12.3333H4.33331ZM9.66665 1.66668V0.378675C9.66654 0.315281 9.68452 0.253171 9.71847 0.199632C9.75242 0.146093 9.80093 0.103345 9.85831 0.0764021C9.9157 0.0494593 9.97958 0.0394392 10.0425 0.0475171C10.1053 0.055595 10.1646 0.0814359 10.2133 0.122009L12.96 2.41068C13.0126 2.45457 13.0504 2.51362 13.0683 2.57979C13.0862 2.64596 13.0832 2.71603 13.0598 2.78045C13.0364 2.84487 12.9937 2.90051 12.9376 2.9398C12.8814 2.97909 12.8145 3.00011 12.746 3.00001H2.99998C2.64636 3.00001 2.30722 3.14048 2.05717 3.39053C1.80712 3.64058 1.66665 3.97972 1.66665 4.33334V9.66667H0.333313V4.33334C0.333313 3.6261 0.614265 2.94782 1.11436 2.44772C1.61446 1.94763 2.29274 1.66668 2.99998 1.66668H9.66665Z" fill="#D9D9D9"/>
</svg>
