<svg width="14" height="14" viewBox="0 0 14 14" fill="none" xmlns="http://www.w3.org/2000/svg">
<path d="M11.0207 10.078L13.876 12.9327L12.9327 13.876L10.078 11.0207C9.01583 11.8722 7.69467 12.3353 6.33334 12.3333C3.02134 12.3333 0.333336 9.64534 0.333336 6.33334C0.333336 3.02134 3.02134 0.333344 6.33334 0.333344C9.64534 0.333344 12.3333 3.02134 12.3333 6.33334C12.3353 7.69468 11.8722 9.01584 11.0207 10.078ZM9.68334 9.58334C10.5294 8.71327 11.0019 7.54696 11 6.33334C11 3.75468 8.91134 1.66668 6.33334 1.66668C3.75467 1.66668 1.66667 3.75468 1.66667 6.33334C1.66667 8.91134 3.75467 11 6.33334 11C7.54696 11.0019 8.71326 10.5294 9.58334 9.68334L9.68334 9.58334Z" fill="white"/>
</svg>
