<svg width="15" height="14" viewBox="0 0 15 14" fill="none" xmlns="http://www.w3.org/2000/svg">
<path d="M11 10.922V9.66671L14.3333 11.6667L11 13.6667V12.2734C9.98094 12.1274 9.01659 11.7218 8.19965 11.0954C7.38272 10.469 6.7407 9.64297 6.33531 8.69671L6.33331 8.69337L6.33131 8.69737C5.8687 9.77654 5.09962 10.6963 4.11937 11.3426C3.13913 11.9889 1.99079 12.3334 0.816646 12.3334H0.333313V11H0.816646C1.72997 11 2.6232 10.732 3.38566 10.2292C4.14811 9.72636 4.74626 9.01087 5.10598 8.17137L5.60798 7.00004L5.10598 5.82871C4.74626 4.98921 4.14811 4.27372 3.38566 3.77091C2.6232 3.26809 1.72997 3.00007 0.816646 3.00004H0.333313V1.66671H0.816646C1.99086 1.66676 3.13925 2.01136 4.11951 2.65779C5.09977 3.30423 5.8688 4.22408 6.33131 5.30337L6.33331 5.30671L6.33531 5.30271C6.74079 4.35658 7.38285 3.53067 8.19978 2.9044C9.0167 2.27814 9.98101 1.87257 11 1.72671V0.333374L14.3333 2.33337L11 4.33337V3.07804C10.2446 3.218 9.53541 3.5423 8.93543 4.02214C8.33545 4.50199 7.86322 5.12254 7.56065 5.82871L7.05865 7.00004L7.56065 8.17137C7.86322 8.87755 8.33545 9.49809 8.93543 9.97794C9.53541 10.4578 10.2446 10.7821 11 10.922Z" fill="#D9D9D9"/>
</svg>
