<?xml version="1.0" encoding="UTF-8" standalone="no"?>
<svg
   width="15"
   height="14"
   viewBox="0 0 15 14"
   fill="none"
   version="1.1"
   id="svg4"
   sodipodi:docname="shuffle2.svg"
   inkscape:version="1.2.1 (9c6d41e410, 2022-07-14)"
   xmlns:inkscape="http://www.inkscape.org/namespaces/inkscape"
   xmlns:sodipodi="http://sodipodi.sourceforge.net/DTD/sodipodi-0.dtd"
   xmlns="http://www.w3.org/2000/svg"
   xmlns:svg="http://www.w3.org/2000/svg">
  <defs
     id="defs8" />
  <sodipodi:namedview
     id="namedview6"
     pagecolor="#ffffff"
     bordercolor="#000000"
     borderopacity="0.25"
     inkscape:showpageshadow="2"
     inkscape:pageopacity="0.0"
     inkscape:pagecheckerboard="0"
     inkscape:deskcolor="#d1d1d1"
     showgrid="false"
     inkscape:zoom="56.285714"
     inkscape:cx="4.2106599"
     inkscape:cy="6.9555838"
     inkscape:window-width="1920"
     inkscape:window-height="986"
     inkscape:window-x="-11"
     inkscape:window-y="-11"
     inkscape:window-maximized="1"
     inkscape:current-layer="svg4" />
  <path
     d="M11 10.922V9.66671L14.3333 11.6667L11 13.6667V12.2734C9.98094 12.1274 9.01659 11.7218 8.19965 11.0954C7.38272 10.469 6.7407 9.64297 6.33531 8.69671L6.33331 8.69337L6.33131 8.69737C5.8687 9.77654 5.09962 10.6963 4.11937 11.3426C3.13913 11.9889 1.99079 12.3334 0.816646 12.3334H0.333313V11H0.816646C1.72997 11 2.6232 10.732 3.38566 10.2292C4.14811 9.72636 4.74626 9.01087 5.10598 8.17137L5.60798 7.00004L5.10598 5.82871C4.74626 4.98921 4.14811 4.27372 3.38566 3.77091C2.6232 3.26809 1.72997 3.00007 0.816646 3.00004H0.333313V1.66671H0.816646C1.99086 1.66676 3.13925 2.01136 4.11951 2.65779C5.09977 3.30423 5.8688 4.22408 6.33131 5.30337L6.33331 5.30671L6.33531 5.30271C6.74079 4.35658 7.38285 3.53067 8.19978 2.9044C9.0167 2.27814 9.98101 1.87257 11 1.72671V0.333374L14.3333 2.33337L11 4.33337V3.07804C10.2446 3.218 9.53541 3.5423 8.93543 4.02214C8.33545 4.50199 7.86322 5.12254 7.56065 5.82871L7.05865 7.00004L7.56065 8.17137C7.86322 8.87755 8.33545 9.49809 8.93543 9.97794C9.53541 10.4578 10.2446 10.7821 11 10.922Z"
     fill="#D9D9D9"
     id="path2" />
  <path
     style="fill:#69db7c;stroke:#1a1a1a;stroke-width:0.0177665;fill-opacity:1"
     d="m 11.010996,12.957373 -0.0047,-0.68906 -0.213198,-0.03874 C 9.2973046,11.957767 7.9840922,11.149694 7.0699959,9.9385673 6.8068961,9.5899751 6.6269034,9.2924291 6.4316073,8.8832487 6.387301,8.7904188 6.3439563,8.714467 6.335286,8.714467 c -0.00867,0 -0.081948,0.1319162 -0.1628397,0.2931472 C 5.6345288,10.079778 4.8251046,10.937539 3.7921448,11.53006 2.8416852,12.075258 1.8346096,12.329949 0.6292973,12.329949 H 0.33756345 v -0.654542 -0.654542 l 0.41307107,-0.01148 C 1.2136505,10.996513 1.4038402,10.978499 1.7157208,10.917976 2.6225106,10.742007 3.4497976,10.302277 4.1051385,9.6479229 4.3663989,9.3870558 4.5198137,9.2025846 4.7005336,8.9319993 4.8977456,8.6367212 5.0327404,8.3666812 5.3310735,7.6706853 L 5.6185575,7 5.3310735,6.3293147 C 4.8655948,5.2433763 4.650752,4.8968692 4.1051385,4.3520771 3.4640888,3.7119927 2.6505903,3.2730186 1.7694715,3.0917214 1.4651448,3.0291038 1.1935648,3.0018324 0.75951777,2.9903044 L 0.33756345,2.9790978 V 2.3245742 1.6700508 H 0.6292973 c 0.7104872,0 1.3274184,0.084174 1.9113118,0.2607801 1.5893531,0.4807194 2.8931523,1.5799965 3.6311619,3.0615549 0.080314,0.161231 0.1536141,0.2931788 0.1628888,0.2932176 0.00927,3.55e-5 0.05242,-0.075913 0.095878,-0.1687818 C 6.6052366,4.7434972 6.8042345,4.4151327 7.0712166,4.0596447 7.9754157,2.8556989 9.2983267,2.0420278 10.793147,1.7704303 l 0.213198,-0.038736 0.0089,-0.6864365 0.0089,-0.68643648 1.64638,0.98785128 1.64638,0.9878513 -1.64638,0.9878304 -1.64638,0.9878305 -0.0047,-0.6182902 c -0.0036,-0.4769683 -0.0097,-0.6182534 -0.02665,-0.6181292 -0.04497,3.287e-4 -0.400229,0.087243 -0.546092,0.1336021 C 9.8824973,3.3866858 9.3103031,3.7005623 8.848434,4.0840942 8.4780836,4.39163 8.0901322,4.8454037 7.8461495,5.2564331 7.6817808,5.5333396 7.6431087,5.6149004 7.3290187,6.3470812 L 7.0489304,7 7.3290187,7.6529188 c 0.3130217,0.7296905 0.3531388,0.8144072 0.5136903,1.0847791 0.6328331,1.0657026 1.7343613,1.8691891 2.941555,2.1456541 0.102601,0.0235 0.19644,0.04279 0.208529,0.04288 0.01696,1.24e-4 0.02305,-0.141161 0.02665,-0.618129 l 0.0047,-0.6182904 1.646422,0.9878554 1.646422,0.987855 -1.582516,0.949598 c -0.870383,0.522278 -1.613177,0.967982 -1.650654,0.990454 l -0.06814,0.04086 z"
     id="path4313" />
</svg>
