<svg width="16" height="13" viewBox="0 0 16 13" fill="none" xmlns="http://www.w3.org/2000/svg">
<path d="M6.66663 3.31331L4.40196 5.16664H1.99996V7.83331H4.40196L6.66663 9.68664V3.31331ZM3.92596 9.16664H1.33329C1.15648 9.16664 0.986912 9.0964 0.861888 8.97138C0.736864 8.84635 0.666626 8.67678 0.666626 8.49997V4.49997C0.666626 4.32316 0.736864 4.15359 0.861888 4.02857C0.986912 3.90355 1.15648 3.83331 1.33329 3.83331H3.92596L7.45529 0.945307C7.50413 0.905272 7.56333 0.879931 7.626 0.872236C7.68868 0.86454 7.75225 0.874806 7.80932 0.901839C7.86639 0.928871 7.91461 0.971557 7.94836 1.02493C7.98211 1.0783 8 1.14016 7.99996 1.20331V11.7966C8 11.8598 7.98211 11.9216 7.94836 11.975C7.91461 12.0284 7.86639 12.0711 7.80932 12.0981C7.75225 12.1251 7.68868 12.1354 7.626 12.1277C7.56333 12.12 7.50413 12.0947 7.45529 12.0546L3.92663 9.16664H3.92596ZM12.9373 11.9226L11.9933 10.9786C12.6253 10.4163 13.1309 9.72642 13.4768 8.95443C13.8227 8.18245 14.001 7.34591 14 6.49997C14.0008 5.6107 13.8035 4.73241 13.4225 3.92889C13.0415 3.12537 12.4863 2.4168 11.7973 1.85464L12.744 0.907974C13.5563 1.59567 14.2088 2.4523 14.656 3.4181C15.1032 4.38391 15.3343 5.43565 15.3333 6.49997C15.3333 8.64864 14.4093 10.5813 12.9373 11.9226ZM10.5753 9.56064L9.62729 8.61264C9.95094 8.36377 10.213 8.0438 10.3932 7.67746C10.5735 7.31112 10.667 6.90824 10.6666 6.49997C10.6666 5.54664 10.1666 4.70997 9.41329 4.23864L10.3726 3.27931C10.8776 3.65077 11.288 4.13587 11.5707 4.69538C11.8535 5.2549 12.0005 5.8731 12 6.49997C12 7.72797 11.4466 8.82664 10.5753 9.56064Z" fill="#D9D9D9"/>
</svg>
