<?xml version="1.0" encoding="UTF-8" standalone="no"?>
<svg
   width="16"
   height="13"
   viewBox="0 0 16 13"
   fill="none"
   version="1.1"
   id="svg4"
   sodipodi:docname="volume2.svg"
   inkscape:version="1.2.1 (9c6d41e410, 2022-07-14)"
   xmlns:inkscape="http://www.inkscape.org/namespaces/inkscape"
   xmlns:sodipodi="http://sodipodi.sourceforge.net/DTD/sodipodi-0.dtd"
   xmlns="http://www.w3.org/2000/svg"
   xmlns:svg="http://www.w3.org/2000/svg">
  <defs
     id="defs8" />
  <sodipodi:namedview
     id="namedview6"
     pagecolor="#ffffff"
     bordercolor="#000000"
     borderopacity="0.25"
     inkscape:showpageshadow="2"
     inkscape:pageopacity="0.0"
     inkscape:pagecheckerboard="0"
     inkscape:deskcolor="#d1d1d1"
     showgrid="false"
     inkscape:zoom="60.615385"
     inkscape:cx="8.001269"
     inkscape:cy="6.4587563"
     inkscape:window-width="1920"
     inkscape:window-height="986"
     inkscape:window-x="-11"
     inkscape:window-y="-11"
     inkscape:window-maximized="1"
     inkscape:current-layer="svg4" />
  <path
     d="M6.66663 3.31331L4.40196 5.16664H1.99996V7.83331H4.40196L6.66663 9.68664V3.31331ZM3.92596 9.16664H1.33329C1.15648 9.16664 0.986912 9.0964 0.861888 8.97138C0.736864 8.84635 0.666626 8.67678 0.666626 8.49997V4.49997C0.666626 4.32316 0.736864 4.15359 0.861888 4.02857C0.986912 3.90355 1.15648 3.83331 1.33329 3.83331H3.92596L7.45529 0.945307C7.50413 0.905272 7.56333 0.879931 7.626 0.872236C7.68868 0.86454 7.75225 0.874806 7.80932 0.901839C7.86639 0.928871 7.91461 0.971557 7.94836 1.02493C7.98211 1.0783 8 1.14016 7.99996 1.20331V11.7966C8 11.8598 7.98211 11.9216 7.94836 11.975C7.91461 12.0284 7.86639 12.0711 7.80932 12.0981C7.75225 12.1251 7.68868 12.1354 7.626 12.1277C7.56333 12.12 7.50413 12.0947 7.45529 12.0546L3.92663 9.16664H3.92596ZM12.9373 11.9226L11.9933 10.9786C12.6253 10.4163 13.1309 9.72642 13.4768 8.95443C13.8227 8.18245 14.001 7.34591 14 6.49997C14.0008 5.6107 13.8035 4.73241 13.4225 3.92889C13.0415 3.12537 12.4863 2.4168 11.7973 1.85464L12.744 0.907974C13.5563 1.59567 14.2088 2.4523 14.656 3.4181C15.1032 4.38391 15.3343 5.43565 15.3333 6.49997C15.3333 8.64864 14.4093 10.5813 12.9373 11.9226ZM10.5753 9.56064L9.62729 8.61264C9.95094 8.36377 10.213 8.0438 10.3932 7.67746C10.5735 7.31112 10.667 6.90824 10.6666 6.49997C10.6666 5.54664 10.1666 4.70997 9.41329 4.23864L10.3726 3.27931C10.8776 3.65077 11.288 4.13587 11.5707 4.69538C11.8535 5.2549 12.0005 5.8731 12 6.49997C12 7.72797 11.4466 8.82664 10.5753 9.56064Z"
     fill="#D9D9D9"
     id="path2" />
  <path
     style="fill:#ff0000;stroke:#1a1a1a;stroke-width:0.0164975"
     d="M 7.5457578,12.095089 C 7.5084564,12.077611 6.6794015,11.409391 5.7034139,10.610155 L 3.9288909,9.1569991 2.545981,9.1524209 1.1630711,9.1478426 1.0534991,9.0942355 C 0.9147272,9.0263425 0.77727784,8.8824232 0.72316273,8.7483497 L 0.68464467,8.6529188 V 6.5 4.3470812 l 0.0385181,-0.095431 C 0.77727784,4.1175768 0.9147272,3.9736575 1.0534991,3.9057645 l 0.109572,-0.053607 1.3818755,-0.00458 1.3818758,-0.00458 1.7773882,-1.4544587 C 6.8505414,1.4504879 7.5085525,0.92268858 7.5575145,0.9019854 7.6902097,0.84587618 7.8328367,0.88963323 7.9292439,1.0160295 l 0.047279,0.061986 v 5.4232935 5.423293 l -0.051241,0.0634 C 7.8243201,12.11291 7.6741988,12.15527 7.5457578,12.095089 Z M 6.6814721,6.5 c 0,-1.9210598 -0.006,-3.1840102 -0.015138,-3.1840102 -0.00833,0 -0.5224281,0.415488 -1.1424492,0.9233064 L 4.3965736,5.1626027 3.1963832,5.1631541 1.9961929,5.1637056 V 6.5 7.8362944 l 1.2001903,5.51e-4 1.2001904,5.51e-4 1.1273112,0.9233066 c 0.6200211,0.5078192 1.1341233,0.9233072 1.1424492,0.9233072 0.00913,0 0.015138,-1.2629504 0.015138,-3.1840102 z"
     id="path1031" />
  <path
     style="fill:#ff0000;stroke:#1a1a1a;stroke-width:0.0164975"
     d="M 10.104585,9.0733969 9.6427665,8.6112607 9.7252538,8.5429772 C 9.8651345,8.4271832 10.055133,8.2210697 10.168447,8.062193 10.926542,6.9992749 10.816758,5.5569495 9.9070465,4.6279576 9.7812365,4.4994811 9.5574058,4.3155395 9.455853,4.2571716 9.432906,4.2439826 9.5068869,4.1626051 9.8983686,3.7704137 10.156907,3.511407 10.373773,3.2994924 10.380293,3.2994924 c 0.02397,0 0.322512,0.2579836 0.461102,0.3984559 0.452834,0.4589865 0.811698,1.0673284 0.989353,1.6771419 0.04667,0.1602065 0.107378,0.4495781 0.13216,0.6299859 0.02792,0.2032781 0.02781,0.7877991 -1.91e-4,0.9898478 -0.106592,0.7690994 -0.392277,1.4345189 -0.871016,2.0287791 -0.123629,0.1534601 -0.478893,0.51183 -0.507395,0.51183 -0.0098,0 -0.225721,-0.2079612 -0.479721,-0.4621361 z"
     id="path1033" />
  <path
     style="fill:#800000;stroke:#1a1a1a;stroke-width:0.0164975"
     d="m 12.476499,11.445058 -0.46543,-0.465997 0.21616,-0.214467 C 13.375271,9.6255415 14.007246,8.105286 14.006175,6.4852311 14.005263,5.1052368 13.511735,3.7354438 12.633771,2.6761063 12.467454,2.4754308 12.089896,2.0898576 11.923155,1.9504047 l -0.111743,-0.093456 0.465309,-0.4655234 c 0.421624,-0.42181963 0.468512,-0.46381121 0.499433,-0.44728494 0.07605,0.0406432 0.755419,0.74191184 0.923311,0.95306764 0.536211,0.6743839 0.929387,1.3777202 1.203516,2.1529188 0.947489,2.6793625 0.272801,5.6407125 -1.741174,7.6423932 l -0.219878,0.218535 z"
     id="path1035" />
  <path
     style="fill:#800000;stroke:#1a1a1a;stroke-width:0.0164975"
     d="m 7.5781002,12.085997 c -0.06711,-0.03019 -0.7263613,-0.55998 -2.341722,-1.881874 L 3.9355179,9.1395939 H 2.5611971 1.1868764 L 1.0857054,9.088523 C 0.94297125,9.016471 0.81996098,8.8942301 0.75052818,8.7554421 L 0.6928934,8.640237 V 6.5 4.359763 L 0.75052818,4.2445579 C 0.81996098,4.1057699 0.94297125,3.983529 1.0857054,3.911477 l 0.101171,-0.051071 1.3738841,-3.3e-5 1.3738842,-3.3e-5 0.6269035,-0.5134396 c 2.412951,-1.9762297 2.9632029,-2.41734717 3.0465614,-2.44232201 0.093648,-0.0280577 0.1853186,0.004883 0.2818016,0.10126191 l 0.078363,0.078278 v 5.4134768 5.4134759 l -0.060626,0.06711 c -0.1011013,0.111904 -0.2280924,0.153452 -0.329548,0.107816 z M 6.6893321,9.3004442 c 0.01484,-0.5131579 0.0043,-5.977808 -0.011565,-5.9936627 -0.017396,-0.017389 -0.1167401,0.061788 -1.567799,1.2495362 L 4.3880837,5.1472081 H 3.1838896 1.9796954 V 6.5 7.8527919 h 1.2042559 1.2042556 l 0.6805794,0.5572067 c 0.6498822,0.5320742 1.2502695,1.0207075 1.4804674,1.2048981 0.058847,0.047086 0.1118354,0.085611 0.1177519,0.085611 0.00592,0 0.015963,-0.1800285 0.022326,-0.4000635 z"
     id="path1106" />
  <path
     style="fill:#d40000;stroke:#1a1a1a;stroke-width:0.0164975"
     d="M 10.128883,9.0647967 9.6768684,8.6125576 9.8013429,8.4978619 C 10.717777,7.6534245 10.948346,6.3232508 10.367535,5.2314405 10.178388,4.8758799 9.9250816,4.5822037 9.5947703,4.3355177 l -0.1304834,-0.097449 0.4604964,-0.46134 0.4604967,-0.46134 0.191297,0.1641402 c 0.427382,0.3667083 0.73986,0.7729028 0.997363,1.2964861 0.145349,0.2955392 0.249652,0.6011438 0.323758,0.9486041 l 0.05454,0.2557106 -6.6e-5,0.5196701 -6.6e-5,0.5196701 -0.05265,0.2477846 C 11.772365,7.8656135 11.522445,8.423896 11.174762,8.8863022 11.058984,9.0402843 10.734987,9.3949914 10.645054,9.4662195 L 10.580895,9.517036 10.12888,9.0647967 Z"
     id="path1108" />
  <path
     style="fill:#d40000;stroke:#1a1a1a;stroke-width:0.0164975"
     d="M 7.5549431,12.045819 C 7.4212071,11.960447 6.8806878,11.525443 5.1177536,10.084397 L 3.9417254,9.1230964 H 2.5596764 1.1776275 L 1.0796132,9.0643704 C 0.94262921,8.9822954 0.83566017,8.8718873 0.76755092,8.7422751 L 0.70939086,8.6315963 V 6.5 4.3684037 L 0.76755092,4.2577249 C 0.83566017,4.1281127 0.94262921,4.0177046 1.0796132,3.9356296 l 0.098014,-0.058726 h 1.382052 1.3820521 L 4.9032897,3.0901048 C 6.4260688,1.8440847 7.2306775,1.1940354 7.4792916,1.0089338 7.6558643,0.87746957 7.7291437,0.88095492 7.8816624,1.0280715 l 0.070114,0.067631 V 6.5 11.904298 l -0.070114,0.06864 c -0.069848,0.06838 -0.1654834,0.119698 -0.2230803,0.119698 -0.016662,0 -0.0633,-0.02107 -0.103639,-0.04682 z M 6.692658,9.6221447 C 6.708324,9.5125535 6.7087808,3.3514615 6.6931265,3.3106658 6.6862243,3.2926789 6.6728439,3.2873417 6.653379,3.2948111 6.6159534,3.3091726 6.186731,3.6537066 5.1810306,4.4766557 L 4.3817298,5.1307107 H 3.1724639 1.963198 V 6.5 7.8692893 h 1.2091501 1.2091501 l 0.7829184,0.6399396 c 1.0717598,0.8760317 1.4839287,1.2077762 1.5005763,1.2077762 0.00776,0 0.020207,-0.042687 0.027665,-0.09486 z"
     id="path1905" />
  <path
     style="fill:#d40000;stroke:#1a1a1a;stroke-width:0.0164975"
     d="m 12.482105,11.431773 -0.439612,-0.446401 0.230372,-0.242368 c 0.531081,-0.55874 0.852433,-1.013969 1.149335,-1.6281563 0.295989,-0.6123003 0.475743,-1.2322014 0.562097,-1.9384518 0.04047,-0.3309757 0.0404,-1.0376888 -1.32e-4,-1.3610406 C 13.859254,4.8186983 13.533765,3.9419786 12.982259,3.116656 12.767762,2.7956642 12.59934,2.5977285 12.211534,2.2108699 L 11.839642,1.839887 12.275468,1.4136817 c 0.239705,-0.2344128 0.449513,-0.43372851 0.466241,-0.44292365 0.02597,-0.0142752 0.06892,0.0214588 0.293892,0.24452315 0.703684,0.6977115 1.094869,1.2233729 1.483495,1.9934751 0.410687,0.813818 0.647161,1.616071 0.752082,2.5514835 0.03962,0.3532613 0.03957,1.1467481 -9.9e-5,1.4903947 -0.119654,1.0365966 -0.425328,1.990348 -0.914715,2.8540605 -0.196689,0.347135 -0.558773,0.859814 -0.809777,1.146574 -0.206217,0.235593 -0.583239,0.626904 -0.604013,0.626904 -0.01148,0 -0.218689,-0.20088 -0.460476,-0.4464 z"
     id="path1907" />
</svg>
